<?xml version="1.0" encoding="utf-8"?>
<!-- Generator: Adobe Illustrator 25.0.0, SVG Export Plug-In . SVG Version: 6.00 Build 0)  -->
<svg version="1.1" id="Layer_1" xmlns="http://www.w3.org/2000/svg" xmlns:xlink="http://www.w3.org/1999/xlink" x="0px" y="0px"
	 viewBox="0 0 574 402" style="enable-background:new 0 0 574 402;" xml:space="preserve">
<style type="text/css">
	.st0{fill:#FF0000;}
	.st1{fill:#FFFFFF;}
</style>
<g>
	<path d="M461.6,176.2h-11v58.6h-10.9v-58.6h-11v-8.9h32.9L461.6,176.2L461.6,176.2z M464.1,167.2h11.5l3.6,30.3
		c1,8.7,1.9,16.2,3.1,26.5h0.5c1-10.3,2-17.6,3.1-26.5l3.7-30.3H501l-11.1,67.5h-14.6L464.1,167.2z"/>
	<path class="st0" d="M183.1,174c-1.3-4.9-5.1-8.6-9.9-10c-8.8-2.3-44-2.3-44-2.3s-35.2,0-44,2.3c-4.8,1.3-8.6,5.1-9.9,10
		c-2.4,8.8-2.4,27-2.4,27s0,18.3,2.3,27c1.4,4.9,5.1,8.7,10,10c8.7,2.3,43.9,2.3,43.9,2.3s35.2,0,44-2.3c4.8-1.3,8.6-5.1,10-9.9
		c2.3-8.8,2.3-27,2.3-27S185.4,182.8,183.1,174z"/>
	<polygon class="st1" points="118,217.9 147.2,201 118,184.1 	"/>
	<path d="M236.2,233.3c-2.4-1.7-4.1-4.2-4.7-7c-1-4.2-1.5-8.4-1.4-12.6v-7.1c-0.1-4.3,0.5-8.6,1.7-12.8c0.8-2.8,2.6-5.3,5-7
		c2.7-1.6,5.9-2.3,8.9-2.3c3.6,0,6.6,0.8,8.8,2.3c2.3,1.8,4.1,4.2,4.8,7c1.1,4.2,1.7,8.4,1.5,12.8v7.1c0.1,4.3-0.3,8.5-1.5,12.7
		c-0.8,2.8-2.4,5.3-4.8,7c-2.3,1.5-5.3,2.3-9.1,2.3C241.5,235.5,238.4,234.8,236.2,233.3z M248.7,225.5c0.7-1.6,0.9-4.3,0.9-7.9
		v-15.3c0.1-2.6-0.2-5.3-0.9-7.8c-0.3-1.5-1.8-2.5-3.3-2.5c-1.5,0-2.8,1-3.2,2.5c-0.8,2.5-1,5.2-0.9,7.8v15.4c0,3.6,0.3,6.3,0.9,7.9
		c0.3,1.5,1.7,2.5,3.3,2.4C247,228,248.3,227,248.7,225.5z M407,213.8v2.5c0,2.4,0.1,4.7,0.3,7.1c0.1,1.2,0.5,2.4,1.2,3.4
		c0.8,0.8,1.8,1.2,2.8,1.1c1.4,0.1,2.8-0.7,3.4-1.9c0.7-1.3,0.9-3.4,1-6.5l9.5,0.7c0.1,0.6,0.1,1.2,0.1,1.8c0,4.5-1.2,7.9-3.7,10.2
		c-2.5,2.3-6,3.3-10.5,3.3c-5.4,0-9.3-1.8-11.5-5.2c-2.3-3.4-3.3-8.7-3.3-15.9v-8.6c0-7.4,1.1-12.8,3.4-16.2
		c2.3-3.4,6.2-5.1,11.7-5.1c3.8,0,6.8,0.8,8.8,2.1c2.1,1.6,3.7,3.9,4.3,6.5c0.9,4,1.4,8.1,1.2,12.2v8.4L407,213.8z M408.5,193.1
		c-0.7,1-1.1,2.3-1.1,3.4c-0.2,2.4-0.3,4.8-0.3,7.2v3.5h8.1v-3.5c0-2.4-0.1-4.8-0.3-7.2c-0.1-1.2-0.5-2.4-1.2-3.4
		c-0.7-0.8-1.7-1.1-2.6-1C410,191.9,409,192.3,408.5,193.1z M209.2,212.9l-12.6-45.6h11l4.4,20.6c1.1,5.1,1.9,9.4,2.5,13h0.3
		c0.3-2.6,1.2-6.9,2.5-13l4.6-20.7h11l-12.8,45.6v21.9h-11L209.2,212.9L209.2,212.9z M296.6,185.5v49.3h-8.7l-0.9-6h-0.3
		c-2.3,4.5-5.9,6.9-10.6,6.9c-3.3,0-5.7-1.1-7.2-3.3c-1.6-2.1-2.3-5.4-2.3-10.1v-36.9h11.1v36.2c-0.1,1.6,0.2,3.3,0.8,4.7
		c0.5,0.9,1.4,1.5,2.4,1.4c1,0,1.9-0.3,2.8-0.9c0.8-0.6,1.6-1.3,1.9-2.3v-39.1L296.6,185.5L296.6,185.5z M353.5,185.5v49.3h-8.7
		l-0.9-6h-0.3c-2.3,4.5-5.9,6.9-10.6,6.9c-3.3,0-5.7-1.1-7.2-3.3c-1.6-2.1-2.3-5.4-2.3-10.1v-36.9h11.1v36.2
		c-0.1,1.6,0.2,3.3,0.8,4.7c0.5,0.9,1.4,1.5,2.4,1.4c1,0,1.9-0.3,2.8-0.9c0.8-0.6,1.6-1.3,1.9-2.3v-39.1L353.5,185.5L353.5,185.5z"
		/>
	<path d="M326.8,176.2h-11v58.6h-10.9v-58.6h-11v-8.9h32.9L326.8,176.2L326.8,176.2z M390.3,193.3c-0.7-3.1-1.8-5.3-3.3-6.8
		c-1.8-1.4-3.9-2.3-6.2-2.1c-2,0-4,0.6-5.8,1.8c-1.8,1.1-3.2,2.7-4.1,4.5h-0.1v-26h-10.6v70.1h9.2l1.1-4.6h0.3
		c0.8,1.7,2.3,3.1,3.9,4c1.8,0.9,3.7,1.5,5.8,1.5c3.5,0.1,6.9-1.9,8.4-5.2c1.8-3.4,2.7-8.9,2.7-16.2v-7.8
		C391.4,201.9,391.1,197.6,390.3,193.3z M380.1,213.4c0,2.8-0.1,5.7-0.5,8.4c-0.1,1.6-0.7,3.1-1.5,4.3c-0.7,0.8-1.7,1.3-2.8,1.3
		c-0.9,0-1.8-0.2-2.5-0.7c-0.8-0.5-1.4-1.1-1.8-1.9v-27.9c0.3-1.3,1-2.4,1.9-3.3c0.8-0.8,1.8-1.3,2.9-1.3c1,0,2,0.5,2.6,1.3
		c0.8,1.4,1.2,2.8,1.3,4.4c0.3,2.9,0.3,5.9,0.3,8.9V213.4z"/>
</g>
</svg>
