<?xml version="1.0" encoding="utf-8"?>
<!-- Generator: Adobe Illustrator 25.0.1, SVG Export Plug-In . SVG Version: 6.00 Build 0)  -->
<svg version="1.1" id="katman_1" xmlns="http://www.w3.org/2000/svg" xmlns:xlink="http://www.w3.org/1999/xlink" x="0px" y="0px"
	 viewBox="0 0 190 116" style="enable-background:new 0 0 190 116;" xml:space="preserve">
<style type="text/css">
	.st0{fill:#282828;}
	.st1{fill:#FF0000;}
	.st2{fill:#FFFFFF;}
</style>
<desc>Created with Sketch.</desc>
<g id="Page-1">
	<g id="Kids_x5F_Logo_x5F_Black_x5F_forWhiteBG_x5F_RGB-_x28_1_x29_">
		<g id="Group" transform="translate(31.969171, 1.866667)">
			<path id="Path" class="st0" d="M108.97,46.43c-1.16,0-1.71,0.44-1.71,1.97c0,1.58,0.55,1.97,1.71,1.97
				c1.18,0,1.71-0.39,1.71-1.97C110.68,46.94,110.16,46.43,108.97,46.43z"/>
			<polygon id="Path_1_" class="st0" points="102.72,54.68 106.09,46.81 102.9,46.81 100.99,51.55 99.21,56.22 99.21,46.81 
				96.21,46.81 96.21,66.24 99.21,66.24 99.21,60.63 100.65,57.18 102.95,66.24 106.18,66.24 103.56,57.3 			"/>
			<polygon id="Path_2_" class="st0" points="107.45,52.04 110.46,52.04 110.46,66.24 107.45,66.24 			"/>
			<path id="Path_3_" class="st0" d="M127.01,57.65c-1.02-0.77-1.66-1.27-1.66-2.39c0-0.79,0.36-1.23,1.23-1.23
				c0.89,0,1.18,0.63,1.21,2.76l2.64-0.11c0.2-3.45-0.91-4.89-3.8-4.89c-2.69,0-4.01,1.23-4.01,3.75c0,2.29,1.09,3.34,2.87,4.7
				c1.53,1.21,2.41,1.88,2.41,2.85c0,0.74-0.46,1.25-1.25,1.25c-0.93,0-1.48-0.9-1.34-2.48l-2.66,0.05
				c-0.41,2.94,0.75,4.66,3.85,4.66c2.71,0,4.12-1.27,4.12-3.82C130.6,60.43,129.46,59.5,127.01,57.65L127.01,57.65z"/>
			<path id="Shape" class="st0" d="M118.13,46.09v7.17c-0.53-0.93-1.54-1.47-2.66-1.47c-2.12,0-3.09,1.92-3.09,6.16v2.25
				c0,4.68,0.75,6.28,2.96,6.28c1.34,0,2.53-0.95,2.96-2.25h0.04l0.39,2.02h2.43V46.09H118.13z M118.13,62.83
				c-0.23,0.83-0.8,1.37-1.39,1.3c-0.93,0-1.21-0.93-1.21-4.17v-1.83c0-3.08,0.34-4.05,1.34-4.05c0.5,0,0.98,0.23,1.25,0.74V62.83z"
				/>
			<path id="Shape_1_" class="st0" d="M38.46,65.83c-0.63-0.43-1.08-1.1-1.34-2.02c-0.26-0.91-0.4-2.12-0.4-3.64v-2.06
				c0-1.53,0.15-2.76,0.46-3.68c0.3-0.93,0.78-1.6,1.42-2.03s1.49-0.64,2.54-0.64c1.03,0,1.86,0.22,2.48,0.65
				c0.62,0.43,1.08,1.11,1.37,2.03c0.29,0.92,0.43,2.14,0.43,3.67v2.06c0,1.51-0.14,2.73-0.42,3.65c-0.28,0.92-0.74,1.59-1.37,2.02
				c-0.63,0.42-1.48,0.64-2.56,0.64C39.96,66.48,39.09,66.26,38.46,65.83L38.46,65.83z M41.99,63.6c0.18-0.46,0.26-1.22,0.26-2.27
				v-4.42c0-1.02-0.09-1.77-0.26-2.23c-0.18-0.47-0.48-0.71-0.92-0.71c-0.42,0-0.73,0.23-0.9,0.71c-0.18,0.47-0.26,1.22-0.26,2.23
				v4.42c0,1.05,0.08,1.81,0.25,2.27c0.17,0.46,0.47,0.7,0.91,0.7S41.82,64.07,41.99,63.6z"/>
			<path id="Shape_2_" class="st0" d="M86.81,60.21v0.72c0,0.91,0.03,1.59,0.08,2.05c0.05,0.46,0.16,0.79,0.33,1
				c0.17,0.21,0.42,0.31,0.77,0.31c0.47,0,0.79-0.19,0.97-0.56c0.18-0.37,0.27-0.99,0.29-1.85l2.71,0.16
				c0.02,0.12,0.02,0.29,0.02,0.51c0,1.31-0.35,2.29-1.06,2.94c-0.7,0.65-1.7,0.97-2.99,0.97c-1.55,0-2.63-0.49-3.25-1.48
				c-0.62-0.99-0.93-2.52-0.93-4.59v-2.48c0-2.13,0.32-3.69,0.97-4.67c0.64-0.98,1.75-1.47,3.31-1.47c1.08,0,1.91,0.2,2.48,0.6
				c0.58,0.4,0.98,1.03,1.22,1.88c0.24,0.85,0.35,2.02,0.35,3.52v2.43L86.81,60.21L86.81,60.21z M87.21,54.23
				c-0.16,0.2-0.26,0.53-0.32,0.98c-0.05,0.46-0.08,1.15-0.08,2.07v1.02h2.3v-1.02c0-0.91-0.03-1.6-0.09-2.07
				c-0.06-0.47-0.17-0.8-0.33-1c-0.16-0.19-0.41-0.29-0.74-0.29C87.62,53.93,87.37,54.03,87.21,54.23L87.21,54.23z"/>
			<path id="Path_4_" class="st0" d="M30.81,59.94l-3.57-13.14h3.12l1.25,5.95c0.32,1.47,0.55,2.72,0.7,3.75h0.09
				c0.1-0.74,0.34-1.98,0.7-3.73l1.3-5.98h3.12L33.9,59.94v6.3h-3.1L30.81,59.94L30.81,59.94z"/>
			<path id="Path_5_" class="st0" d="M55.56,52.04v14.2H53.1l-0.27-1.74h-0.07c-0.67,1.31-1.67,1.97-3.01,1.97
				c-0.93,0-1.61-0.31-2.05-0.93c-0.44-0.62-0.66-1.58-0.66-2.9V52.04h3.14v10.42c0,0.63,0.07,1.09,0.2,1.35
				c0.14,0.27,0.36,0.41,0.68,0.41c0.27,0,0.53-0.09,0.79-0.26c0.25-0.17,0.43-0.39,0.56-0.65V52.04L55.56,52.04L55.56,52.04z"/>
			<path id="Path_6_" class="st0" d="M71.68,52.04v14.2h-2.46l-0.27-1.74h-0.07c-0.67,1.31-1.67,1.97-3.01,1.97
				c-0.93,0-1.61-0.31-2.05-0.93c-0.44-0.62-0.66-1.58-0.66-2.9V52.04h3.14v10.42c0,0.63,0.07,1.09,0.2,1.35
				c0.14,0.27,0.36,0.41,0.68,0.41c0.27,0,0.53-0.09,0.79-0.26c0.25-0.17,0.43-0.39,0.56-0.65V52.04L71.68,52.04L71.68,52.04z"/>
			<polygon id="Path_7_" class="st0" points="64.1,49.38 60.98,49.38 60.98,66.25 57.91,66.25 57.91,49.38 54.79,49.38 54.79,46.81 
				64.1,46.81 			"/>
			<path id="Shape_3_" class="st0" d="M82.07,54.31c-0.19-0.9-0.5-1.54-0.92-1.95s-1.01-0.6-1.75-0.6c-0.58,0-1.12,0.17-1.62,0.5
				s-0.89,0.77-1.16,1.31h-0.02v-7.48h-3.03v20.15h2.59l0.32-1.34h0.07c0.24,0.48,0.61,0.86,1.09,1.14
				c0.48,0.28,1.02,0.42,1.62,0.42c1.06,0,1.84-0.5,2.35-1.49c0.5-1,0.75-2.55,0.75-4.67v-2.25C82.36,56.45,82.26,55.21,82.07,54.31
				L82.07,54.31z M79.19,60.11c0,1.03-0.04,1.85-0.13,2.43c-0.08,0.59-0.22,1.01-0.42,1.25c-0.2,0.25-0.46,0.37-0.8,0.37
				c-0.26,0-0.5-0.06-0.72-0.19c-0.22-0.12-0.4-0.31-0.53-0.55v-8.06c0.1-0.39,0.29-0.7,0.55-0.95c0.26-0.25,0.54-0.37,0.84-0.37
				c0.32,0,0.57,0.13,0.74,0.38c0.18,0.26,0.3,0.68,0.36,1.29c0.07,0.6,0.1,1.46,0.1,2.57L79.19,60.11L79.19,60.11z"/>
		</g>
		<path id="Path_8_" class="st1" d="M55.91,59.58c-0.02-1.41-0.82-8.11-1.21-9.15c-0.25-0.67-0.78-1.9-1.75-2.64
			c-1.25-0.95-2.27-1.13-3.57-1.15c-0.91-0.02-15.49,1.86-17.26,2.53c-1.32,0.49-2.35,1.13-3.17,1.94
			c-1.32,1.33-1.57,2.62-1.37,4.89c0.19,2.06,1.14,8.88,1.61,10.29c0.52,1.56,1.48,2.76,3.06,2.93c4.83,0.53,5.97-2.17,17.2-2.15
			c3.4,0.01,5.09-1.5,5.8-2.82C56.08,62.69,55.92,60.65,55.91,59.58L55.91,59.58z"/>
		<path id="Shape_4_" class="st0" d="M49.02,47.15h0.01c1.24,0.02,2.21,0.19,3.41,1.1c0.93,0.71,1.44,1.88,1.67,2.52
			c0.37,0.99,1.13,7.38,1.15,8.73c0.01,1.03,0.17,2.97-0.62,4.45c-0.67,1.25-2.28,2.69-5.51,2.69c-0.01,0-0.02,0-0.02,0
			c-0.05,0-0.1,0-0.15,0c-9.63,0-11.4,2.11-15.1,2.11c-0.36,0-0.75-0.02-1.16-0.06c-1.51-0.17-2.42-1.31-2.92-2.79
			c-0.45-1.35-1.35-7.86-1.54-9.82c-0.2-2.17,0.04-3.4,1.3-4.66c0.77-0.78,1.76-1.38,3.02-1.85C34.24,48.93,48.03,47.15,49.02,47.15
			L49.02,47.15z M49.02,46.02c-0.62,0-4.7,0.51-8.12,0.98c-3.42,0.47-7.7,1.12-8.72,1.5c-1.41,0.53-2.53,1.22-3.42,2.11
			c-1.64,1.64-1.83,3.35-1.63,5.58c0.16,1.73,1.07,8.52,1.59,10.08c0.7,2.1,2.07,3.36,3.85,3.55c0.44,0.05,0.86,0.07,1.28,0.07
			c1.56,0,2.8-0.34,4.24-0.73c2.26-0.62,5.07-1.38,10.87-1.38h0.14h0.03c1.42,0,4.9-0.32,6.48-3.28c0.85-1.58,0.8-3.51,0.77-4.66
			c0-0.13-0.01-0.25-0.01-0.35c-0.02-1.37-0.79-7.94-1.22-9.11c-0.5-1.36-1.19-2.38-2.05-3.03c-1.4-1.07-2.58-1.3-4.05-1.33h-0.01
			H49.02z"/>
		<path id="Path_9_" class="st2" d="M46.1,57.74c-0.04,0.02-0.07,0.05-0.11,0.07c-0.28,0.19-0.56,0.39-0.84,0.58
			c-0.65,0.45-4.43,3.07-4.43,3.07c-0.32,0.25-0.93,0.64-1.16,0.51c-0.23-0.13-0.31-0.97-0.37-1.38l-0.01-0.09
			c-0.07-0.49-0.61-5.19-0.68-5.71c-0.02-0.15-0.11-0.68,0.06-0.81c0.18-0.13,0.62,0.02,0.77,0.07c0.87,0.28,5.24,1.83,6.6,2.53
			c0.04,0.02,0.08,0.04,0.13,0.06c0.19,0.08,0.46,0.2,0.47,0.53C46.52,57.48,46.29,57.62,46.1,57.74L46.1,57.74z"/>
		<path id="Shape_5_" class="st0" d="M39.11,54.68c1.52,0.52,5.03,1.79,6.68,2.53c-0.2,0.14-0.4,0.27-0.6,0.41
			c-0.77,0.53-5.25,3.63-5.25,3.63l-0.02,0.02l-0.02,0.02c0,0,0,0,0,0c-0.01-0.04-0.01-0.07-0.01-0.1l-0.02-0.18l-0.02-0.11
			c-0.06-0.42-0.42-3.5-0.63-5.35C39.17,55.22,39.14,54.92,39.11,54.68L39.11,54.68z M38.26,53.29c-0.1,0-0.18,0.02-0.24,0.06
			c-0.2,0.14-0.09,0.78-0.07,0.95c0.07,0.61,0.72,6.18,0.8,6.76l0.01,0.11c0.07,0.49,0.16,1.49,0.43,1.64
			c0.04,0.02,0.08,0.03,0.13,0.03c0.33,0,0.91-0.38,1.24-0.64c0,0,4.48-3.1,5.25-3.63c0.33-0.23,0.67-0.46,1-0.69
			c0.04-0.03,0.08-0.05,0.13-0.08c0.23-0.14,0.51-0.31,0.5-0.68c-0.01-0.39-0.32-0.53-0.55-0.62c-0.05-0.02-0.1-0.05-0.15-0.07
			c-1.61-0.82-6.79-2.66-7.82-2.99C38.8,53.39,38.5,53.29,38.26,53.29L38.26,53.29z"/>
	</g>
</g>
</svg>
