<?xml version="1.0" encoding="utf-8"?>
<!-- Generator: Adobe Illustrator 24.3.0, SVG Export Plug-In . SVG Version: 6.00 Build 0)  -->
<svg version="1.0"
	 id="SVGRoot" xmlns:cc="http://creativecommons.org/ns#" xmlns:dc="http://purl.org/dc/elements/1.1/" xmlns:rdf="http://www.w3.org/1999/02/22-rdf-syntax-ns#" xmlns:svg="http://www.w3.org/2000/svg"
	 xmlns="http://www.w3.org/2000/svg" xmlns:xlink="http://www.w3.org/1999/xlink" x="0px" y="0px" viewBox="0 0 469 348"
	 style="enable-background:new 0 0 469 348;" xml:space="preserve">
<style type="text/css">
	.st0{fill:#FF0000;}
	.st1{fill:#FFFFFF;}
</style>
<g id="layer1">
	<g id="Layer_2" transform="translate(0,0.36)">
		<g id="Layer_1-2">
			<path id="path6" class="st0" d="M151.69,146.27c-1.32-4.92-5.16-8.76-10.08-10.08c-8.9-2.38-44.57-2.38-44.57-2.38
				s-35.65,0-44.55,2.38c-4.92,1.32-8.76,5.16-10.08,10.08c-2.38,8.9-2.38,27.45-2.38,27.45s0,18.56,2.38,27.45
				c1.32,4.92,5.16,8.76,10.08,10.08c8.9,2.38,44.56,2.38,44.56,2.38s35.66,0,44.56-2.38c4.92-1.32,8.76-5.16,10.08-10.08
				c2.38-8.9,2.38-27.45,2.38-27.45S154.07,155.17,151.69,146.27z"/>
			<path id="path8" class="st1" d="M85.64,190.83l29.63-17.11l-29.63-17.11V190.83z"/>
			<path id="path10" d="M204.75,159.14v2.76c0,13.79-6.11,21.85-19.49,21.85h-2.04v24.14H172.3v-68.4h13.93
				C198.96,139.49,204.75,144.87,204.75,159.14z M193.25,160.12c0-9.95-1.79-12.31-7.99-12.31h-2.04v27.81h1.88
				c5.87,0,8.16-4.24,8.16-13.45L193.25,160.12z M230.6,157.1l-0.57,12.97c-4.65-0.98-8.48-0.24-10.19,2.76v35.06h-10.84v-49.97
				h8.64l0.98,10.83h0.41c1.14-7.91,4.81-11.9,9.54-11.9C229.25,156.86,229.93,156.95,230.6,157.1L230.6,157.1z M243.07,186.68v2.53
				c0,8.81,0.49,11.83,4.24,11.83c3.59,0,4.4-2.76,4.48-8.48l9.7,0.57c0.74,10.76-4.89,15.57-14.43,15.57c-11.58,0-15-7.58-15-21.36
				v-8.74c0-14.51,3.83-21.61,15.33-21.61c11.58,0,14.51,6.03,14.51,21.12v8.57H243.07z M243.07,176.4v3.59h8.23v-3.56
				c0-9.2-0.65-11.83-4.14-11.83c-3.49,0-4.1,2.69-4.1,11.83V176.4z M317.93,170.13v37.75h-11.24v-36.91c0-4.08-1.06-6.11-3.51-6.11
				c-1.96,0-3.75,1.14-4.97,3.26c0.07,0.68,0.1,1.36,0.08,2.04v37.75h-11.26v-36.93c0-4.08-1.06-6.11-3.51-6.11
				c-1.96,0-3.68,1.14-4.89,3.18v39.87h-11.25v-49.99h8.89l1,6.36h0.16c2.53-4.81,6.61-7.42,11.42-7.42c4.73,0,7.42,2.36,8.64,6.61
				c2.61-4.32,6.52-6.61,11.01-6.61C315.32,156.86,317.93,161.75,317.93,170.13z M323.55,145.12c0-5.38,1.96-6.93,6.11-6.93
				c4.24,0,6.11,1.79,6.11,6.93c0,5.54-1.88,6.93-6.11,6.93C325.51,152.04,323.55,150.66,323.55,145.12z M324.21,157.92h10.76v49.99
				h-10.76V157.92z M371.74,157.92v49.99h-8.8l-0.98-6.11h-0.24c-2.53,4.89-6.2,6.93-10.76,6.93c-6.69,0-9.71-4.24-9.71-13.45
				v-37.35h11.25v36.69c0,4.4,0.92,6.2,3.18,6.2c2.07-0.08,3.92-1.31,4.8-3.18v-39.71H371.74z M428.82,170.13v37.75h-11.25v-36.91
				c0-4.08-1.06-6.11-3.51-6.11c-1.96,0-3.75,1.14-4.97,3.26c0.07,0.67,0.1,1.34,0.08,2.02v37.75h-11.25v-36.91
				c0-4.08-1.06-6.11-3.51-6.11c-1.96,0-3.68,1.14-4.89,3.18v39.87h-11.25v-49.99h8.88l0.98,6.36h0.16
				c2.53-4.81,6.61-7.42,11.42-7.42c4.73,0,7.42,2.36,8.64,6.61c2.61-4.32,6.52-6.61,11.01-6.61
				C426.22,156.86,428.82,161.75,428.82,170.13z"/>
		</g>
	</g>
</g>
</svg>
